<?xml version="1.0" encoding="utf-8"?>
<!-- Generator: Adobe Illustrator 16.0.0, SVG Export Plug-In . SVG Version: 6.00 Build 0)  -->
<!DOCTYPE svg PUBLIC "-//W3C//DTD SVG 1.1//EN" "http://www.w3.org/Graphics/SVG/1.1/DTD/svg11.dtd">
<svg version="1.1" id="Layer_1" xmlns="http://www.w3.org/2000/svg" xmlns:xlink="http://www.w3.org/1999/xlink" x="0px" y="0px"
	 width="113.949px" height="67.502px" viewBox="0 0 113.949 67.502" enable-background="new 0 0 113.949 67.502"
	 xml:space="preserve">
<g>
	<rect y="62.507" fill="#30544F" width="2.781" height="4.995"/>
</g>
<g>
	<rect y="56.306" fill="#30544F" width="2.781" height="4.995"/>
</g>
<g>
	<rect y="50.106" fill="#30544F" width="2.781" height="4.994"/>
</g>
<g>
	<rect y="43.905" fill="#30544F" width="2.781" height="4.994"/>
</g>
<g>
	<rect y="37.705" fill="#30544F" width="2.781" height="4.995"/>
</g>
<g>
	<rect y="31.504" fill="#30544F" width="2.781" height="4.995"/>
</g>
<g>
	<rect y="25.303" fill="#30544F" width="2.781" height="4.995"/>
</g>
<g>
	<rect y="19.103" fill="#30544F" width="2.781" height="4.995"/>
</g>
<g>
	<rect y="12.902" fill="#30544F" width="2.781" height="4.995"/>
</g>
<g>
	<rect y="6.702" fill="#30544F" width="2.781" height="4.995"/>
</g>
<g>
	<rect y="0.501" fill="#30544F" width="2.781" height="4.995"/>
</g>
<g>
	<defs>
		<path id="SVGID_1_" d="M4.641,67.502h18.833c0,0,1-44.865,15-54.6c14-9.735,69.5-6.701,74.667-6.701V0H4.782L4.641,67.502z"/>
	</defs>
	<clipPath id="SVGID_2_">
		<use xlink:href="#SVGID_1_"  overflow="visible"/>
	</clipPath>
	<g clip-path="url(#SVGID_2_)">
		<rect x="4.641" y="62.506" fill="#30544F" width="109.308" height="4.996"/>
		<rect x="4.641" y="56.306" fill="#30544F" width="109.308" height="4.995"/>
		<rect x="4.641" y="50.106" fill="#30544F" width="109.308" height="4.994"/>
		<rect x="4.641" y="43.905" fill="#30544F" width="109.308" height="4.996"/>
		<rect x="4.641" y="37.705" fill="#30544F" width="109.308" height="4.995"/>
		<rect x="4.641" y="31.504" fill="#30544F" width="109.308" height="4.994"/>
		<rect x="4.641" y="25.303" fill="#30544F" width="109.308" height="4.995"/>
		<rect x="4.641" y="19.103" fill="#30544F" width="109.308" height="4.996"/>
		<rect x="4.641" y="12.902" fill="#30544F" width="109.308" height="4.995"/>
		<rect x="4.641" y="6.702" fill="#30544F" width="109.308" height="4.995"/>
		<rect x="4.641" y="0.501" fill="#30544F" width="109.308" height="4.995"/>
	</g>
</g>
</svg>
