<?xml version="1.0" encoding="utf-8"?>
<!-- Generator: Adobe Illustrator 16.0.0, SVG Export Plug-In . SVG Version: 6.00 Build 0)  -->
<!DOCTYPE svg PUBLIC "-//W3C//DTD SVG 1.1//EN" "http://www.w3.org/Graphics/SVG/1.1/DTD/svg11.dtd">
<svg version="1.1" id="Layer_1" xmlns="http://www.w3.org/2000/svg" xmlns:xlink="http://www.w3.org/1999/xlink" x="0px" y="0px"
	 width="351.5px" height="224.5px" viewBox="0 0 351.5 224.5" enable-background="new 0 0 351.5 224.5" xml:space="preserve">
<g id="Layer_3">
	<rect y="-2.5" fill="#091A17" width="351.5" height="227"/>
</g>
<g>
	<path fill="#305A40" d="M143.333,92.999"/>
	<g>
		<path fill="#30544F" d="M11.167,216.5h329.667v-90.333H11.167V216.5z M12.167,127.167h327.667V215.5H12.167V127.167z"/>
		<rect x="6" y="7.667" fill="#30544F" width="2.167" height="9"/>
		<rect x="6" y="97.963" fill="#30544F" width="2.167" height="9"/>
		<rect x="343.5" y="7.667" fill="#30544F" width="2.166" height="9"/>
		<rect x="343.5" y="97.963" fill="#30544F" width="2.166" height="9"/>
		<path fill="#30544F" d="M340.666,7.833h-329.5v100.833h329.5V7.833z M108.667,107.667h-96.5V8.833h96.5V107.667z M242.166,107.667
			h-132.5V95.5h132.5V107.667z M242.166,94.5h-132.5V8.833h132.5V94.5z M339.666,107.667h-96.5V8.833h96.5V107.667z"/>
	</g>
	<polygon fill="#30544F" points="115.23,99.235 122.735,99.235 118.983,102.988 	"/>
	<polygon fill="#30544F" points="189.605,98.482 189.605,103.988 185.854,101.235 	"/>
	<polygon fill="#30544F" points="233.607,103.989 233.607,98.484 237.359,101.236 	"/>
	<g>
		<text transform="matrix(1 0 0 1 215.75 32.3643)" fill="#A6D7B2" font-family="'Abstract'" font-size="2">max</text>
		<text transform="matrix(1 0 0 1 146.2495 89.4688)" fill="#A6D7B2" font-family="'Abstract'" font-size="2">0</text>
		<text transform="matrix(1 0 0 1 124.6553 19.8896)" fill="#A6D7B2" font-family="'Abstract'" font-size="4.6647">PTT</text>
		<text transform="matrix(1 0 0 1 168.8516 66.3535)" fill="#A6D7B2" font-family="'Abstract'" font-size="5.6141">130.85</text>
		<text transform="matrix(1 0 0 1 194.002 103.1826)" fill="#A6D7B2" font-family="'Abstract'" font-size="3.2689">tune</text>
		<text transform="matrix(1 0 0 1 127.335 103.1826)" fill="#A6D7B2" font-family="'Abstract'" font-size="3.2689">mem.</text>
	</g>
	<rect x="25.5" y="139.166" fill="none" width="301.5" height="66.666"/>
</g>
</svg>
